<?xml version="1.0" standalone="no"?>
<!DOCTYPE svg PUBLIC "-//W3C//DTD SVG 20010904//EN"
 "http://www.w3.org/TR/2001/REC-SVG-20010904/DTD/svg10.dtd">
<svg version="1.0" xmlns="http://www.w3.org/2000/svg"
 width="512.000000pt" height="512.000000pt" viewBox="0 0 512.000000 512.000000"
 preserveAspectRatio="xMidYMid meet">

<g transform="translate(0.000000,512.000000) scale(0.100000,-0.100000)"
fill="#000000" stroke="none">
<path d="M2370 5113 c-25 -1 -97 -10 -160 -19 -747 -102 -1410 -532 -1824
-1184 -63 -99 -186 -351 -230 -471 -88 -241 -142 -520 -152 -789 -23 -601 166
-1180 544 -1670 84 -109 323 -348 432 -432 490 -378 1070 -567 1670 -544 671
25 1277 295 1745 777 769 792 944 1976 436 2954 -127 245 -259 425 -465 631
-78 77 -179 170 -226 206 -514 396 -1136 587 -1770 541z m-790 -1934 c34 -15
160 -135 513 -487 l467 -467 468 467 c491 491 511 508 597 508 42 0 116 -29
149 -58 30 -26 66 -113 66 -157 -1 -87 -13 -102 -578 -668 -295 -296 -557
-553 -582 -570 -41 -29 -52 -32 -120 -32 -68 0 -79 3 -120 32 -25 17 -287 274
-582 570 -565 566 -578 581 -578 668 0 42 29 116 58 149 26 30 113 66 157 66
22 0 60 -10 85 -21z"/>
</g>
</svg>
