<svg xmlns="http://www.w3.org/2000/svg" viewBox="0 0 21.28 21.28"><defs><style>.cls-1{fill:#fff;}</style></defs><g id="Слой_2" data-name="Слой 2"><g id="OBJECTS"><path class="cls-1" d="M18.61.62A.63.63,0,0,0,18,0a8,8,0,0,0-7.34,4.88A8,8,0,0,0,3.29,0a.62.62,0,0,0-.62.62,8,8,0,0,0,7.34,8v4.07a.63.63,0,0,0,1.25,0V8.57A8,8,0,0,0,18.61.62Z"/><path class="cls-1" d="M6.74,12.53a2,2,0,0,0-2.82-.06V10A3.29,3.29,0,0,0,.62,6.68h0A.62.62,0,0,0,0,7.3v8a.63.63,0,0,0,.18.44L4,19.58v1.07a.62.62,0,0,0,.62.63H9.3a.63.63,0,0,0,.63-.63V17.09a3.28,3.28,0,0,0-1-2.33ZM8.68,20H5.25v-.71a.59.59,0,0,0-.18-.44L1.25,15.05V8a2.06,2.06,0,0,1,1.42,2v4a.67.67,0,0,0,.18.44l2.67,2.67a.64.64,0,0,0,.89,0,.63.63,0,0,0,0-.88L4.74,14.54a.79.79,0,0,1,1.12-1.12l2.22,2.22a2,2,0,0,1,.6,1.45V20Z"/><path class="cls-1" d="M20.65,6.68h0A3.29,3.29,0,0,0,17.36,10v2.5a2,2,0,0,0-2.82.06l-2.23,2.23a3.27,3.27,0,0,0-1,2.33v3.56a.63.63,0,0,0,.62.63h4.68a.63.63,0,0,0,.62-.63V19.58l3.82-3.83a.6.6,0,0,0,.19-.44v-8A.63.63,0,0,0,20.65,6.68ZM20,15.05l-3.82,3.83a.6.6,0,0,0-.19.44V20H12.6V17.09a2,2,0,0,1,.6-1.45l2.22-2.22a.79.79,0,0,1,1.12,1.12l-1.67,1.67a.62.62,0,0,0,.88.88l2.67-2.67a.63.63,0,0,0,.19-.44V10A2,2,0,0,1,20,8v7Z"/></g></g></svg>