<?xml version="1.0" encoding="utf-8"?>
<!-- Generator: Adobe Illustrator 25.1.0, SVG Export Plug-In . SVG Version: 6.00 Build 0)  -->
<svg version="1.1" id="Слой_1" xmlns="http://www.w3.org/2000/svg" xmlns:xlink="http://www.w3.org/1999/xlink" x="0px" y="0px"
	 viewBox="0 0 319.9 345.1" style="enable-background:new 0 0 319.9 345.1;" xml:space="preserve">
<style type="text/css">
	.st0{fill:#B0AD98;}
	.st1{fill:#E9E0CF;}
	.st2{opacity:0.8;fill:#373228;enable-background:new    ;}
</style>
<g id="Слой_2_1_">
	<g id="Objects">
		
			<rect x="16" y="41.1" transform="matrix(0.9969 -7.828510e-02 7.828510e-02 0.9969 -14.1873 13.2937)" class="st0" width="292.9" height="292.9"/>
		
			<rect x="11" y="36.2" transform="matrix(0.9969 -7.828510e-02 7.828510e-02 0.9969 -13.8118 12.8872)" class="st1" width="292.9" height="292.9"/>
		<path class="st2" d="M28.9,77.3c3.1-0.6,6.1-1.7,9-3.1c3.6-1.8,6.9-4.2,10.8-4.9l-16-53.5c-1.4,0.6-3.4,1-4.7,1.4
			c-3.8,1.3-7.7,2.6-11.5,3.7c-4.2,1.3-8.4,2.5-12.6,3.7l16.5,55.5c1.2-0.6,2.4-1.3,3.7-1.8C25.7,77.9,27.3,77.5,28.9,77.3z"/>
		<path class="st2" d="M255.1,58.2c3.1,0.7,6.3,1,9.4,0.9c4-0.1,8-0.9,11.9,0l7.7-55.2c-1.6,0-3.5-0.5-4.9-0.6c-4-0.4-8-0.9-12-1.4
			c-4.3-0.6-8.7-1.2-13-1.9l-8,57.4c1.4,0,2.8-0.2,4.1-0.1C251.9,57.5,253.5,57.8,255.1,58.2z"/>
	</g>
</g>
</svg>
