<svg xmlns="http://www.w3.org/2000/svg" viewBox="0 0 353.64 325.24"><defs><style>.cls-1{isolation:isolate;}.cls-2,.cls-4{fill:#c4af85;}.cls-2{mix-blend-mode:multiply;}.cls-3{fill:#f4f0da;}.cls-5,.cls-6{fill:#797c4b;}.cls-5{opacity:0.8;}</style></defs><g class="cls-1"><g id="Слой_2" data-name="Слой 2"><g id="Objects"><rect class="cls-2" x="28.64" y="28.67" width="292.9" height="292.9" transform="translate(-4.41 345.71) rotate(-88.55)"/><rect class="cls-3" x="24.01" y="24.04" width="292.9" height="292.9" transform="translate(4.38 -4.27) rotate(1.45)"/><rect class="cls-3" x="172.56" y="-48.34" width="0.25" height="261.88" transform="translate(85.74 253.13) rotate(-88.55)"/><rect class="cls-4" x="171.98" y="-25.51" width="0.25" height="261.88" transform="translate(62.35 274.81) rotate(-88.55)"/><rect class="cls-4" x="171.4" y="-2.68" width="0.25" height="261.88" transform="translate(38.96 296.48) rotate(-88.55)"/><rect class="cls-4" x="170.82" y="20.16" width="0.25" height="261.88" transform="translate(15.57 318.16) rotate(-88.55)"/><rect class="cls-4" x="170.24" y="42.99" width="0.25" height="261.88" transform="translate(-7.82 339.83) rotate(-88.55)"/><rect class="cls-4" x="169.66" y="65.82" width="0.25" height="261.88" transform="translate(-31.21 361.51) rotate(-88.55)"/><rect class="cls-4" x="169.09" y="88.66" width="0.25" height="261.88" transform="translate(-54.61 383.18) rotate(-88.55)"/><rect class="cls-4" x="168.51" y="111.49" width="0.25" height="261.88" transform="translate(-78 404.86) rotate(-88.55)"/><rect class="cls-4" x="167.93" y="134.32" width="0.25" height="261.88" transform="translate(-101.39 426.54) rotate(-88.55)"/><rect class="cls-4" x="167.35" y="157.16" width="0.25" height="261.88" transform="translate(-124.78 448.21) rotate(-88.55)"/><path class="cls-5" d="M82.43,11.34C80,8.58,77.1,6.23,74.61,3.5A21.24,21.24,0,0,1,71.73,0L0,63.91c2.51,1.43,5.07,5.17,6.56,6.77C11.26,75.74,16,80.8,20.47,86L92,22.36C88.26,19.3,85.67,15,82.43,11.34Z"/><path class="cls-6" d="M349.81,48.09c1-3.56,1.45-7.24,2.42-10.8A21.91,21.91,0,0,1,353.64,33L261.24,6.67c.14,2.89-1.65,7.05-2.2,9.17-1.75,6.68-3.51,13.37-5.51,20L345.61,62C346.21,57.28,348.48,52.77,349.81,48.09Z"/></g></g></g></svg>