<svg xmlns="http://www.w3.org/2000/svg" viewBox="0 0 329.24 331.85"><defs><style>.cls-1,.cls-3{fill:#4b5545;}.cls-2{fill:#8b9586;}.cls-3{opacity:0.8;}</style></defs><g id="Слой_2" data-name="Слой 2"><g id="Objects"><path class="cls-1" d="M296.54,8.09,5.48,40.78,38.17,331.85l291.07-32.7ZM21.14,59.65a7,7,0,1,1,7.74,6.18A7,7,0,0,1,21.14,59.65ZM24.7,91.32a7,7,0,1,1,7.74,6.18A7,7,0,0,1,24.7,91.32ZM28.25,123A7,7,0,1,1,36,129.17,7,7,0,0,1,28.25,123Zm3.56,31.67a7,7,0,1,1,7.74,6.18A7,7,0,0,1,31.81,154.67Zm3.56,31.67a7,7,0,1,1,7.74,6.18A7,7,0,0,1,35.37,186.34ZM38.93,218a7,7,0,1,1,7.74,6.18A7,7,0,0,1,38.93,218Zm3.56,31.67a7,7,0,1,1,7.74,6.18A7,7,0,0,1,42.49,249.69ZM46,281.37a7,7,0,1,1,7.75,6.17A7,7,0,0,1,46,281.37Zm11.3,37.85a7,7,0,1,1,6.18-7.74A7,7,0,0,1,57.34,319.22Z"/><path class="cls-2" d="M291.07,3.61,0,36.31,32.7,327.37l291.06-32.69ZM15.66,55.17a7,7,0,1,1,7.74,6.18A7,7,0,0,1,15.66,55.17Zm3.56,31.68A7,7,0,1,1,27,93,7,7,0,0,1,19.22,86.85Zm3.56,31.67a7,7,0,1,1,7.74,6.18A7,7,0,0,1,22.78,118.52Zm3.56,31.67a7,7,0,1,1,7.74,6.18A7,7,0,0,1,26.34,150.19Zm3.55,31.68a7,7,0,1,1,7.75,6.18A7,7,0,0,1,29.89,181.87Zm3.56,31.67a7,7,0,1,1,7.74,6.18A7,7,0,0,1,33.45,213.54ZM37,245.22a7,7,0,1,1,7.74,6.17A7,7,0,0,1,37,245.22Zm3.56,31.67a7,7,0,1,1,7.74,6.18A7,7,0,0,1,40.57,276.89Zm11.3,37.85A7,7,0,1,1,58.05,307,7,7,0,0,1,51.87,314.74Z"/><path class="cls-3" d="M33.21,26.57q1.36,5.9,2.54,11.84c.84,4.3,1.6,8.61,2.36,12.92L153.7,29.45A93.62,93.62,0,0,1,151.12,17a16.46,16.46,0,0,0-1.22-5.12,5.61,5.61,0,0,1-.76-1.89,10.39,10.39,0,0,1,.13-1.57,6.78,6.78,0,0,0-.38-2.31C148.56,4.39,147,1.87,147.23,0l-115,21.76C32.74,23.26,32.89,25.21,33.21,26.57Z"/></g></g></svg>