<svg xmlns="http://www.w3.org/2000/svg" viewBox="0 0 360.24 324.85"><defs><style>.cls-1{fill:#b2af98;}.cls-2{fill:#ebe3cf;}.cls-3{fill:#cfd0d2;}.cls-4{fill:#c4af85;opacity:0.8;}</style></defs><g id="Слой_2" data-name="Слой 2"><g id="Objects"><rect class="cls-1" x="42.38" y="19.18" width="292.9" height="292.9" transform="translate(15.93 -16.57) rotate(5.25)"/><rect class="cls-2" x="37.38" y="14.18" width="292.9" height="292.9" transform="translate(15.45 -16.13) rotate(5.25)"/><path class="cls-3" d="M72.28,38.9a1.21,1.21,0,0,1-.89.28,1.16,1.16,0,0,1-.82-.44A1.2,1.2,0,0,1,70.72,37a1.19,1.19,0,0,1,.9-.28,1.14,1.14,0,0,1,.82.44,1.21,1.21,0,0,1-.16,1.72Z"/><path class="cls-3" d="M87.67,40.31a1.17,1.17,0,0,1-.89.28,1.18,1.18,0,0,1-.83-.44,1.17,1.17,0,0,1-.28-.89,1.2,1.2,0,0,1,.44-.83,1.17,1.17,0,0,1,.89-.28,1.22,1.22,0,0,1,.67,2.16Z"/><path class="cls-3" d="M103.05,41.72a1.23,1.23,0,0,1-2-1,1.2,1.2,0,0,1,.44-.83,1.23,1.23,0,0,1,.9-.28,1.18,1.18,0,0,1,.82.44,1.17,1.17,0,0,1,.28.89A1.15,1.15,0,0,1,103.05,41.72Z"/><path class="cls-3" d="M118.44,43.13a1.17,1.17,0,0,1-.89.28,1.15,1.15,0,0,1-.83-.44,1.17,1.17,0,0,1-.28-.89A1.25,1.25,0,0,1,117.77,41a1.2,1.2,0,0,1,.83.44,1.21,1.21,0,0,1-.16,1.72Z"/><path class="cls-3" d="M133.82,44.54a1.17,1.17,0,0,1-.89.29,1.16,1.16,0,0,1-.82-.44,1.2,1.2,0,0,1-.29-.9,1.24,1.24,0,0,1,1.34-1.1,1.14,1.14,0,0,1,.82.44,1.17,1.17,0,0,1,.28.89A1.13,1.13,0,0,1,133.82,44.54Z"/><path class="cls-3" d="M149.21,46a1.21,1.21,0,0,1-.89.28,1.18,1.18,0,0,1-.83-.44,1.17,1.17,0,0,1-.28-.89,1.18,1.18,0,0,1,.44-.83,1.17,1.17,0,0,1,.89-.28,1.2,1.2,0,0,1,.83.44,1.17,1.17,0,0,1,.28.89A1.2,1.2,0,0,1,149.21,46Z"/><path class="cls-3" d="M164.59,47.37a1.23,1.23,0,0,1-2-1,1.2,1.2,0,0,1,.44-.83,1.23,1.23,0,0,1,.9-.28,1.18,1.18,0,0,1,.82.44,1.17,1.17,0,0,1,.28.89A1.15,1.15,0,0,1,164.59,47.37Z"/><path class="cls-3" d="M180,48.78a1.17,1.17,0,0,1-.89.28,1.15,1.15,0,0,1-.83-.44,1.23,1.23,0,0,1,1.05-2,1.2,1.2,0,0,1,.83.44,1.21,1.21,0,0,1-.16,1.72Z"/><path class="cls-3" d="M195.36,50.19a1.17,1.17,0,0,1-.89.29,1.16,1.16,0,0,1-.82-.44,1.2,1.2,0,0,1-.29-.9A1.24,1.24,0,0,1,194.7,48a1.14,1.14,0,0,1,.82.44,1.17,1.17,0,0,1,.28.89A1.13,1.13,0,0,1,195.36,50.19Z"/><path class="cls-3" d="M210.75,51.61a1.21,1.21,0,0,1-.89.28,1.18,1.18,0,0,1-.83-.44,1.17,1.17,0,0,1-.28-.89,1.18,1.18,0,0,1,.44-.83,1.17,1.17,0,0,1,.89-.28,1.22,1.22,0,0,1,.67,2.16Z"/><path class="cls-3" d="M226.13,53a1.23,1.23,0,0,1-2-1.05,1.2,1.2,0,0,1,.44-.83,1.21,1.21,0,0,1,1.72.16,1.21,1.21,0,0,1-.16,1.72Z"/><path class="cls-3" d="M241.52,54.43a1.17,1.17,0,0,1-.89.28,1.15,1.15,0,0,1-.83-.44,1.23,1.23,0,0,1,1-2,1.2,1.2,0,0,1,.83.44,1.23,1.23,0,0,1,.28.9A1.18,1.18,0,0,1,241.52,54.43Z"/><path class="cls-3" d="M256.9,55.84a1.17,1.17,0,0,1-.89.29,1.25,1.25,0,0,1-1.11-1.34,1.18,1.18,0,0,1,.44-.82,1.15,1.15,0,0,1,.9-.28,1.17,1.17,0,0,1,.82.43,1.2,1.2,0,0,1,.28.9A1.13,1.13,0,0,1,256.9,55.84Z"/><path class="cls-3" d="M272.29,57.26a1.21,1.21,0,0,1-.89.28,1.18,1.18,0,0,1-.83-.44,1.17,1.17,0,0,1-.28-.89,1.18,1.18,0,0,1,.44-.83,1.17,1.17,0,0,1,.89-.28,1.22,1.22,0,0,1,.67,2.16Z"/><path class="cls-3" d="M287.67,58.67a1.23,1.23,0,0,1-2-1.05,1.2,1.2,0,0,1,.44-.83,1.21,1.21,0,0,1,1.72.16,1.21,1.21,0,0,1-.16,1.72Z"/><path class="cls-3" d="M303.06,60.08a1.17,1.17,0,0,1-.89.28,1.15,1.15,0,0,1-.83-.44,1.17,1.17,0,0,1-.28-.89,1.22,1.22,0,0,1,2.16-.67,1.22,1.22,0,0,1,.28.89A1.18,1.18,0,0,1,303.06,60.08Z"/><path class="cls-3" d="M318.44,61.49a1.13,1.13,0,0,1-.89.28,1.15,1.15,0,0,1-.82-.43,1.21,1.21,0,0,1-.29-.9,1.18,1.18,0,0,1,.44-.82,1.2,1.2,0,0,1,.9-.29,1.22,1.22,0,0,1,.82.44,1.19,1.19,0,0,1,.28.9A1.14,1.14,0,0,1,318.44,61.49Z"/><path class="cls-3" d="M70,63.79a1.17,1.17,0,0,1-.89.28,1.18,1.18,0,0,1-.83-.44,1.17,1.17,0,0,1-.28-.89,1.22,1.22,0,0,1,2.16-.67,1.22,1.22,0,0,1,.28.89A1.18,1.18,0,0,1,70,63.79Z"/><path class="cls-3" d="M85.38,65.2a1.13,1.13,0,0,1-.89.28,1.15,1.15,0,0,1-.82-.43,1.21,1.21,0,0,1-.29-.9,1.18,1.18,0,0,1,.44-.82,1.2,1.2,0,0,1,.9-.29,1.22,1.22,0,0,1,.82.44,1.19,1.19,0,0,1,.28.9A1.14,1.14,0,0,1,85.38,65.2Z"/><path class="cls-3" d="M100.77,66.62a1.21,1.21,0,0,1-.89.28,1.18,1.18,0,0,1-.83-.44,1.17,1.17,0,0,1-.28-.89,1.18,1.18,0,0,1,.44-.83,1.21,1.21,0,0,1,1.72.16,1.21,1.21,0,0,1-.16,1.72Z"/><path class="cls-3" d="M116.15,68a1.23,1.23,0,0,1-2-1,1.2,1.2,0,0,1,.44-.83,1.21,1.21,0,0,1,1.72.16,1.21,1.21,0,0,1-.16,1.72Z"/><path class="cls-3" d="M131.54,69.44a1.17,1.17,0,0,1-.89.28,1.18,1.18,0,0,1-.83-.44,1.17,1.17,0,0,1-.28-.89,1.22,1.22,0,0,1,2.44.22A1.18,1.18,0,0,1,131.54,69.44Z"/><path class="cls-3" d="M146.92,70.85a1.17,1.17,0,0,1-.89.28,1.13,1.13,0,0,1-.82-.44,1.19,1.19,0,0,1,.15-1.71,1.2,1.2,0,0,1,.9-.29,1.24,1.24,0,0,1,1.1,1.34A1.14,1.14,0,0,1,146.92,70.85Z"/><path class="cls-3" d="M162.31,72.26a1.22,1.22,0,1,1,.16-1.71,1.21,1.21,0,0,1,.28.89A1.16,1.16,0,0,1,162.31,72.26Z"/><path class="cls-3" d="M177.69,73.68a1.23,1.23,0,0,1-2-1.05,1.22,1.22,0,0,1,2.16-.67,1.21,1.21,0,0,1-.16,1.72Z"/><path class="cls-3" d="M193.08,75.09a1.17,1.17,0,0,1-.89.28,1.18,1.18,0,0,1-.83-.44,1.17,1.17,0,0,1-.28-.89,1.22,1.22,0,0,1,2.44.22A1.18,1.18,0,0,1,193.08,75.09Z"/><path class="cls-3" d="M208.46,76.5a1.17,1.17,0,0,1-.89.28,1.13,1.13,0,0,1-.82-.44,1.17,1.17,0,0,1-.29-.89,1.16,1.16,0,0,1,.44-.82,1.2,1.2,0,0,1,.9-.29,1.24,1.24,0,0,1,1.1,1.34A1.14,1.14,0,0,1,208.46,76.5Z"/><path class="cls-3" d="M223.85,77.91a1.2,1.2,0,0,1-1.72-.15,1.19,1.19,0,0,1-.28-.9,1.14,1.14,0,0,1,.44-.82,1.21,1.21,0,0,1,1.72.16,1.21,1.21,0,0,1,.28.89A1.16,1.16,0,0,1,223.85,77.91Z"/><path class="cls-3" d="M239.23,79.33a1.21,1.21,0,0,1-.89.28,1.16,1.16,0,0,1-.82-.44,1.2,1.2,0,0,1,.15-1.72,1.21,1.21,0,0,1,1.72.16,1.21,1.21,0,0,1-.16,1.72Z"/><path class="cls-3" d="M254.62,80.74a1.17,1.17,0,0,1-.89.28,1.18,1.18,0,0,1-.83-.44,1.17,1.17,0,0,1-.28-.89,1.2,1.2,0,0,1,.44-.83,1.17,1.17,0,0,1,.89-.28,1.22,1.22,0,0,1,.67,2.16Z"/><path class="cls-3" d="M270,82.15a1.17,1.17,0,0,1-.89.28,1.13,1.13,0,0,1-.82-.44,1.17,1.17,0,0,1-.29-.89,1.2,1.2,0,0,1,.44-.83,1.23,1.23,0,0,1,.9-.28,1.24,1.24,0,0,1,1.1,1.34A1.14,1.14,0,0,1,270,82.15Z"/><path class="cls-3" d="M285.39,83.56a1.17,1.17,0,0,1-.89.29,1.22,1.22,0,0,1-.83-.44,1.21,1.21,0,0,1,.16-1.72,1.21,1.21,0,0,1,1.72.16,1.21,1.21,0,0,1,.28.89A1.16,1.16,0,0,1,285.39,83.56Z"/><path class="cls-3" d="M300.77,85a1.21,1.21,0,0,1-.89.28,1.16,1.16,0,0,1-.82-.44,1.2,1.2,0,0,1,.15-1.72,1.21,1.21,0,0,1,1.72.16,1.21,1.21,0,0,1-.16,1.72Z"/><path class="cls-3" d="M316.16,86.39a1.17,1.17,0,0,1-.89.28,1.18,1.18,0,0,1-.83-.44,1.17,1.17,0,0,1-.28-.89,1.2,1.2,0,0,1,.44-.83,1.17,1.17,0,0,1,.89-.28,1.22,1.22,0,0,1,.67,2.16Z"/><path class="cls-3" d="M67.71,88.69a1.22,1.22,0,0,1-2-1A1.22,1.22,0,0,1,67.87,87a1.21,1.21,0,0,1-.16,1.72Z"/><path class="cls-3" d="M83.1,90.1a1.17,1.17,0,0,1-.89.28,1.18,1.18,0,0,1-.83-.44,1.22,1.22,0,0,1,1.05-2,1.22,1.22,0,0,1,.67,2.16Z"/><path class="cls-3" d="M98.48,91.51a1.17,1.17,0,0,1-.89.28,1.13,1.13,0,0,1-.82-.44,1.17,1.17,0,0,1-.29-.89,1.2,1.2,0,0,1,.44-.83,1.23,1.23,0,0,1,.9-.28,1.24,1.24,0,0,1,1.1,1.33A1.15,1.15,0,0,1,98.48,91.51Z"/><path class="cls-3" d="M113.87,92.92a1.13,1.13,0,0,1-.89.28,1.17,1.17,0,0,1-.83-.43,1.2,1.2,0,0,1-.28-.9,1.14,1.14,0,0,1,.44-.82,1.17,1.17,0,0,1,.89-.29,1.23,1.23,0,0,1,1.11,1.34A1.18,1.18,0,0,1,113.87,92.92Z"/><path class="cls-3" d="M129.25,94.34a1.21,1.21,0,0,1-.89.28,1.16,1.16,0,0,1-.82-.44,1.2,1.2,0,0,1,.15-1.72,1.19,1.19,0,0,1,.9-.28,1.14,1.14,0,0,1,.82.44,1.21,1.21,0,0,1-.16,1.72Z"/><path class="cls-3" d="M144.64,95.75a1.17,1.17,0,0,1-.89.28,1.18,1.18,0,0,1-.83-.44,1.22,1.22,0,0,1,1.05-2,1.22,1.22,0,0,1,.67,2.16Z"/><path class="cls-3" d="M160,97.16a1.23,1.23,0,0,1-2-1,1.2,1.2,0,0,1,.44-.83,1.23,1.23,0,0,1,.9-.28,1.18,1.18,0,0,1,.82.44,1.17,1.17,0,0,1,.28.89A1.15,1.15,0,0,1,160,97.16Z"/><path class="cls-3" d="M175.41,98.57a1.17,1.17,0,0,1-.89.28,1.15,1.15,0,0,1-.83-.44,1.17,1.17,0,0,1-.28-.89,1.25,1.25,0,0,1,1.33-1.11,1.2,1.2,0,0,1,.83.44,1.23,1.23,0,0,1,.28.9A1.18,1.18,0,0,1,175.41,98.57Z"/><path class="cls-3" d="M190.79,100a1.17,1.17,0,0,1-.89.29,1.16,1.16,0,0,1-.82-.44,1.22,1.22,0,0,1,1-2,1.14,1.14,0,0,1,.82.44,1.17,1.17,0,0,1,.28.89A1.13,1.13,0,0,1,190.79,100Z"/><path class="cls-3" d="M206.18,101.4a1.21,1.21,0,0,1-1.72-.16,1.17,1.17,0,0,1-.28-.89,1.15,1.15,0,0,1,.44-.83,1.17,1.17,0,0,1,.89-.28,1.22,1.22,0,0,1,.67,2.16Z"/><path class="cls-3" d="M221.56,102.81a1.17,1.17,0,0,1-.89.28,1.22,1.22,0,0,1-.67-2.16,1.22,1.22,0,0,1,.89-.28,1.18,1.18,0,0,1,.83.44,1.17,1.17,0,0,1,.28.89A1.15,1.15,0,0,1,221.56,102.81Z"/><path class="cls-3" d="M237,104.22a1.18,1.18,0,0,1-.89.28,1.15,1.15,0,0,1-.83-.44,1.17,1.17,0,0,1-.28-.89,1.13,1.13,0,0,1,.44-.82,1.17,1.17,0,0,1,.89-.29,1.2,1.2,0,0,1,.83.44,1.23,1.23,0,0,1,.28.9A1.18,1.18,0,0,1,237,104.22Z"/><path class="cls-3" d="M252.33,105.63a1.17,1.17,0,0,1-.89.29,1.2,1.2,0,0,1-.83-.44,1.23,1.23,0,0,1-.28-.9,1.24,1.24,0,0,1,1.33-1.1,1.15,1.15,0,0,1,.83.44,1.17,1.17,0,0,1,.28.89A1.13,1.13,0,0,1,252.33,105.63Z"/><path class="cls-3" d="M267.72,107.05a1.22,1.22,0,0,1-.89.28,1.18,1.18,0,0,1-.83-.44,1.17,1.17,0,0,1-.28-.89,1.15,1.15,0,0,1,.44-.83,1.17,1.17,0,0,1,.89-.28,1.22,1.22,0,0,1,.67,2.16Z"/><path class="cls-3" d="M283.1,108.46a1.17,1.17,0,0,1-.89.28,1.22,1.22,0,0,1-.67-2.16,1.21,1.21,0,0,1,1.72.16,1.21,1.21,0,0,1-.16,1.72Z"/><path class="cls-3" d="M298.49,109.87a1.18,1.18,0,0,1-.89.28,1.15,1.15,0,0,1-.83-.44,1.21,1.21,0,0,1,.16-1.72,1.21,1.21,0,0,1,1.72.16,1.23,1.23,0,0,1,.28.9A1.18,1.18,0,0,1,298.49,109.87Z"/><path class="cls-3" d="M313.87,111.28a1.17,1.17,0,0,1-.89.29,1.23,1.23,0,0,1-1.11-1.34,1.18,1.18,0,0,1,.44-.82,1.21,1.21,0,0,1,1.72.16,1.17,1.17,0,0,1,.28.89A1.13,1.13,0,0,1,313.87,111.28Z"/><path class="cls-3" d="M65.43,113.58a1.18,1.18,0,0,1-.89.28,1.15,1.15,0,0,1-.83-.44,1.21,1.21,0,0,1,.16-1.72,1.21,1.21,0,0,1,1.72.16,1.23,1.23,0,0,1,.28.9A1.18,1.18,0,0,1,65.43,113.58Z"/><path class="cls-3" d="M80.81,115a1.17,1.17,0,0,1-.89.29,1.23,1.23,0,0,1-1.11-1.34,1.24,1.24,0,0,1,1.33-1.1,1.15,1.15,0,0,1,.83.44,1.17,1.17,0,0,1,.28.89A1.13,1.13,0,0,1,80.81,115Z"/><path class="cls-3" d="M96.2,116.41a1.22,1.22,0,0,1-.89.28,1.18,1.18,0,0,1-.83-.44,1.17,1.17,0,0,1-.28-.89,1.15,1.15,0,0,1,.44-.83,1.17,1.17,0,0,1,.89-.28,1.22,1.22,0,0,1,.67,2.16Z"/><path class="cls-3" d="M111.58,117.82a1.17,1.17,0,0,1-.89.28,1.22,1.22,0,0,1-.67-2.16,1.21,1.21,0,0,1,1.72.16,1.21,1.21,0,0,1-.16,1.72Z"/><path class="cls-3" d="M127,119.23a1.18,1.18,0,0,1-.89.28,1.15,1.15,0,0,1-.83-.44,1.21,1.21,0,0,1,.16-1.72,1.21,1.21,0,0,1,1.72.16,1.22,1.22,0,0,1,.28.89A1.18,1.18,0,0,1,127,119.23Z"/><path class="cls-3" d="M142.35,120.64a1.13,1.13,0,0,1-.89.28,1.19,1.19,0,0,1-.83-.43,1.25,1.25,0,0,1-.28-.9,1.25,1.25,0,0,1,1.33-1.11,1.22,1.22,0,0,1,.83.44,1.19,1.19,0,0,1,.28.9A1.14,1.14,0,0,1,142.35,120.64Z"/><path class="cls-3" d="M157.74,122.06a1.22,1.22,0,0,1-.89.28,1.18,1.18,0,0,1-.83-.44,1.17,1.17,0,0,1-.28-.89,1.15,1.15,0,0,1,.44-.83,1.21,1.21,0,0,1,1.72.16,1.21,1.21,0,0,1-.16,1.72Z"/><path class="cls-3" d="M173.12,123.47a1.17,1.17,0,0,1-.89.28,1.22,1.22,0,0,1-.67-2.16,1.21,1.21,0,0,1,1.72.16,1.21,1.21,0,0,1-.16,1.72Z"/><path class="cls-3" d="M188.51,124.88a1.21,1.21,0,0,1-1.72-.16A1.21,1.21,0,0,1,187,123a1.22,1.22,0,0,1,2,1A1.18,1.18,0,0,1,188.51,124.88Z"/><path class="cls-3" d="M203.89,126.29a1.21,1.21,0,0,1-1.72-.16,1.21,1.21,0,0,1-.28-.89,1.23,1.23,0,1,1,2,1.05Z"/><path class="cls-3" d="M219.28,127.7a1.22,1.22,0,0,1-2-1,1.15,1.15,0,0,1,.44-.83,1.17,1.17,0,0,1,.89-.28,1.13,1.13,0,0,1,.82.44,1.17,1.17,0,0,1,.29.89A1.16,1.16,0,0,1,219.28,127.7Z"/><path class="cls-3" d="M234.66,129.12a1.17,1.17,0,0,1-.89.28,1.23,1.23,0,0,1-1.11-1.33,1.18,1.18,0,0,1,.44-.83A1.17,1.17,0,0,1,234,127a1.18,1.18,0,0,1,.83.44,1.17,1.17,0,0,1,.28.89A1.2,1.2,0,0,1,234.66,129.12Z"/><path class="cls-3" d="M250.05,130.53a1.21,1.21,0,0,1-1.72-.16,1.21,1.21,0,0,1,.16-1.72,1.21,1.21,0,0,1,.89-.28,1.16,1.16,0,0,1,.82.44,1.2,1.2,0,0,1-.15,1.72Z"/><path class="cls-3" d="M265.43,131.94a1.21,1.21,0,0,1-1.72-.16,1.21,1.21,0,0,1-.28-.89,1.16,1.16,0,0,1,.44-.82,1.2,1.2,0,0,1,1.72.15,1.21,1.21,0,0,1-.16,1.72Z"/><path class="cls-3" d="M280.82,133.35a1.22,1.22,0,0,1-2-1,1.14,1.14,0,0,1,.44-.82,1.17,1.17,0,0,1,.89-.28,1.13,1.13,0,0,1,.82.44,1.17,1.17,0,0,1,.29.89A1.16,1.16,0,0,1,280.82,133.35Z"/><path class="cls-3" d="M296.2,134.77a1.22,1.22,0,0,1-2-1.05,1.18,1.18,0,0,1,.44-.83,1.17,1.17,0,0,1,.89-.28,1.18,1.18,0,0,1,.83.44,1.17,1.17,0,0,1,.28.89A1.2,1.2,0,0,1,296.2,134.77Z"/><path class="cls-3" d="M311.59,136.18a1.21,1.21,0,0,1-1.72-.16,1.22,1.22,0,1,1,2.16-.67A1.2,1.2,0,0,1,311.59,136.18Z"/><path class="cls-3" d="M63.14,138.48a1.22,1.22,0,0,1-2-1,1.18,1.18,0,0,1,.44-.83,1.17,1.17,0,0,1,.89-.28,1.18,1.18,0,0,1,.83.44,1.17,1.17,0,0,1,.28.89A1.2,1.2,0,0,1,63.14,138.48Z"/><path class="cls-3" d="M78.53,139.89a1.21,1.21,0,0,1-1.72-.16,1.22,1.22,0,1,1,2.16-.67A1.2,1.2,0,0,1,78.53,139.89Z"/><path class="cls-3" d="M93.91,141.3a1.21,1.21,0,0,1-1.72-.16,1.21,1.21,0,0,1-.28-.89,1.16,1.16,0,0,1,.44-.82,1.2,1.2,0,0,1,1.72.15,1.21,1.21,0,0,1-.16,1.72Z"/><path class="cls-3" d="M109.3,142.71a1.22,1.22,0,0,1-2-1.05,1.14,1.14,0,0,1,.44-.82,1.2,1.2,0,0,1,1.71.16,1.17,1.17,0,0,1,.29.89A1.16,1.16,0,0,1,109.3,142.71Z"/><path class="cls-3" d="M124.68,144.13a1.22,1.22,0,0,1-2-1,1.18,1.18,0,0,1,.44-.83A1.17,1.17,0,0,1,124,142a1.18,1.18,0,0,1,.83.44,1.17,1.17,0,0,1,.28.89A1.2,1.2,0,0,1,124.68,144.13Z"/><path class="cls-3" d="M140.07,145.54a1.21,1.21,0,0,1-1.72-.16,1.22,1.22,0,1,1,2.16-.67A1.2,1.2,0,0,1,140.07,145.54Z"/><path class="cls-3" d="M155.45,147a1.21,1.21,0,0,1-1.72-.16,1.22,1.22,0,0,1,1.05-2,1.22,1.22,0,0,1,.67,2.16Z"/><path class="cls-3" d="M170.84,148.36a1.14,1.14,0,0,1-.89.28,1.17,1.17,0,0,1-.83-.43,1.2,1.2,0,0,1-.28-.9,1.14,1.14,0,0,1,.44-.82,1.17,1.17,0,0,1,.89-.29,1.25,1.25,0,0,1,1.11,1.34A1.18,1.18,0,0,1,170.84,148.36Z"/><path class="cls-3" d="M186.22,149.78a1.22,1.22,0,0,1-2-1.05,1.18,1.18,0,0,1,.44-.83,1.17,1.17,0,0,1,.89-.28,1.15,1.15,0,0,1,.83.44,1.17,1.17,0,0,1,.28.89A1.2,1.2,0,0,1,186.22,149.78Z"/><path class="cls-3" d="M201.61,151.19a1.21,1.21,0,0,1-1.72-.16,1.22,1.22,0,1,1,2.16-.67A1.2,1.2,0,0,1,201.61,151.19Z"/><path class="cls-3" d="M217,152.6a1.17,1.17,0,0,1-.89.28,1.22,1.22,0,0,1,.22-2.44,1.18,1.18,0,0,1,.83.44,1.17,1.17,0,0,1,.28.89A1.18,1.18,0,0,1,217,152.6Z"/><path class="cls-3" d="M232.38,154a1.19,1.19,0,0,1-.9.28,1.14,1.14,0,0,1-.82-.44,1.17,1.17,0,0,1-.28-.89,1.14,1.14,0,0,1,.44-.82,1.17,1.17,0,0,1,.89-.29,1.16,1.16,0,0,1,.82.44,1.2,1.2,0,0,1,.29.9A1.18,1.18,0,0,1,232.38,154Z"/><path class="cls-3" d="M247.76,155.42a1.17,1.17,0,0,1-.89.29,1.2,1.2,0,0,1-.83-.44,1.22,1.22,0,0,1-.28-.89,1.18,1.18,0,0,1,.44-.83,1.17,1.17,0,0,1,.89-.28,1.15,1.15,0,0,1,.83.44,1.2,1.2,0,0,1-.16,1.71Z"/><path class="cls-3" d="M263.15,156.84a1.21,1.21,0,0,1-1.72-.16,1.17,1.17,0,0,1-.28-.89,1.15,1.15,0,0,1,.44-.83,1.23,1.23,0,0,1,2,1A1.2,1.2,0,0,1,263.15,156.84Z"/><path class="cls-3" d="M278.53,158.25a1.17,1.17,0,0,1-.89.28,1.22,1.22,0,0,1,.22-2.44,1.18,1.18,0,0,1,.83.44,1.17,1.17,0,0,1,.28.89A1.18,1.18,0,0,1,278.53,158.25Z"/><path class="cls-3" d="M293.92,159.66a1.19,1.19,0,0,1-.9.28,1.14,1.14,0,0,1-.82-.44,1.17,1.17,0,0,1-.28-.89,1.13,1.13,0,0,1,.44-.82,1.17,1.17,0,0,1,.89-.29,1.16,1.16,0,0,1,.82.44,1.2,1.2,0,0,1,.29.9A1.18,1.18,0,0,1,293.92,159.66Z"/><path class="cls-3" d="M309.3,161.07a1.17,1.17,0,0,1-.89.29,1.2,1.2,0,0,1-.83-.44,1.23,1.23,0,0,1-.28-.9,1.18,1.18,0,0,1,.44-.82,1.17,1.17,0,0,1,.89-.28,1.15,1.15,0,0,1,.83.44,1.2,1.2,0,0,1-.16,1.71Z"/><path class="cls-3" d="M60.86,163.37a1.19,1.19,0,0,1-.9.28,1.14,1.14,0,0,1-.82-.44,1.17,1.17,0,0,1-.28-.89,1.13,1.13,0,0,1,.44-.82,1.17,1.17,0,0,1,.89-.29,1.16,1.16,0,0,1,.82.44,1.2,1.2,0,0,1,.29.9A1.18,1.18,0,0,1,60.86,163.37Z"/><path class="cls-3" d="M76.24,164.78a1.17,1.17,0,0,1-.89.29,1.2,1.2,0,0,1-.83-.44,1.23,1.23,0,0,1-.28-.9,1.18,1.18,0,0,1,.44-.82,1.17,1.17,0,0,1,.89-.28,1.15,1.15,0,0,1,.83.44,1.2,1.2,0,0,1-.16,1.71Z"/><path class="cls-3" d="M91.63,166.2a1.23,1.23,0,0,1-.9.28,1.18,1.18,0,0,1-.82-.44,1.17,1.17,0,0,1-.28-.89,1.15,1.15,0,0,1,.44-.83,1.23,1.23,0,0,1,2,1.05A1.2,1.2,0,0,1,91.63,166.2Z"/><path class="cls-3" d="M107,167.61a1.17,1.17,0,0,1-.89.28,1.22,1.22,0,0,1-.67-2.16,1.17,1.17,0,0,1,.89-.28,1.18,1.18,0,0,1,.83.44,1.17,1.17,0,0,1,.28.89A1.2,1.2,0,0,1,107,167.61Z"/><path class="cls-3" d="M122.4,169a1.19,1.19,0,0,1-.9.28,1.14,1.14,0,0,1-.82-.44,1.17,1.17,0,0,1-.28-.89,1.13,1.13,0,0,1,.44-.82,1.17,1.17,0,0,1,.89-.29,1.16,1.16,0,0,1,.82.44,1.2,1.2,0,0,1,.29.9A1.18,1.18,0,0,1,122.4,169Z"/><path class="cls-3" d="M137.78,170.43a1.17,1.17,0,0,1-.89.29,1.23,1.23,0,0,1-1.11-1.34,1.18,1.18,0,0,1,.44-.82,1.17,1.17,0,0,1,.89-.28,1.15,1.15,0,0,1,.83.44,1.2,1.2,0,0,1-.16,1.71Z"/><path class="cls-3" d="M153.17,171.85a1.23,1.23,0,0,1-.9.28,1.18,1.18,0,0,1-.82-.44,1.17,1.17,0,0,1-.28-.89,1.15,1.15,0,0,1,.44-.83,1.23,1.23,0,0,1,2,1.05A1.2,1.2,0,0,1,153.17,171.85Z"/><path class="cls-3" d="M168.55,173.26a1.17,1.17,0,0,1-.89.28,1.22,1.22,0,0,1-.67-2.16,1.17,1.17,0,0,1,.89-.28,1.18,1.18,0,0,1,.83.44,1.17,1.17,0,0,1,.28.89A1.2,1.2,0,0,1,168.55,173.26Z"/><path class="cls-3" d="M183.94,174.67a1.19,1.19,0,0,1-.9.28,1.14,1.14,0,0,1-.82-.44,1.21,1.21,0,0,1,.16-1.72,1.21,1.21,0,0,1,.89-.28,1.16,1.16,0,0,1,.82.44,1.2,1.2,0,0,1,.29.9A1.18,1.18,0,0,1,183.94,174.67Z"/><path class="cls-3" d="M199.32,176.08a1.13,1.13,0,0,1-.89.28,1.21,1.21,0,0,1-.67-2.15,1.17,1.17,0,0,1,.89-.29,1.22,1.22,0,0,1,.83.44,1.21,1.21,0,0,1-.16,1.72Z"/><path class="cls-3" d="M214.71,177.5a1.23,1.23,0,0,1-.9.28,1.18,1.18,0,0,1-.82-.44,1.17,1.17,0,0,1-.28-.89,1.15,1.15,0,0,1,.44-.83,1.17,1.17,0,0,1,.89-.28,1.13,1.13,0,0,1,.82.44,1.17,1.17,0,0,1,.29.89A1.2,1.2,0,0,1,214.71,177.5Z"/><path class="cls-3" d="M230.09,178.91a1.17,1.17,0,0,1-.89.28,1.2,1.2,0,0,1-.83-.44,1.17,1.17,0,0,1-.28-.89,1.2,1.2,0,0,1,.44-.83,1.17,1.17,0,0,1,.89-.28,1.18,1.18,0,0,1,.83.44,1.17,1.17,0,0,1,.28.89A1.2,1.2,0,0,1,230.09,178.91Z"/><path class="cls-3" d="M245.48,180.32a1.21,1.21,0,0,1-1.72-.16,1.21,1.21,0,0,1,.16-1.72,1.21,1.21,0,0,1,.89-.28,1.16,1.16,0,0,1,.82.44,1.2,1.2,0,0,1-.15,1.72Z"/><path class="cls-3" d="M260.86,181.73a1.22,1.22,0,0,1-2-1,1.23,1.23,0,1,1,2,1Z"/><path class="cls-3" d="M276.25,183.14a1.2,1.2,0,0,1-.9.29,1.24,1.24,0,0,1-1.1-1.33,1.15,1.15,0,0,1,.44-.83,1.17,1.17,0,0,1,.89-.28,1.13,1.13,0,0,1,.82.44,1.17,1.17,0,0,1,.29.89A1.16,1.16,0,0,1,276.25,183.14Z"/><path class="cls-3" d="M291.63,184.56a1.17,1.17,0,0,1-.89.28,1.2,1.2,0,0,1-.83-.44,1.17,1.17,0,0,1-.28-.89,1.18,1.18,0,0,1,.44-.83,1.17,1.17,0,0,1,.89-.28,1.18,1.18,0,0,1,.83.44,1.17,1.17,0,0,1,.28.89A1.2,1.2,0,0,1,291.63,184.56Z"/><path class="cls-3" d="M307,186a1.21,1.21,0,0,1-1.72-.16,1.21,1.21,0,0,1,.16-1.72,1.21,1.21,0,0,1,.89-.28,1.16,1.16,0,0,1,.82.44A1.2,1.2,0,0,1,307,186Z"/><path class="cls-3" d="M58.57,188.27a1.17,1.17,0,0,1-.89.28,1.2,1.2,0,0,1-.83-.44,1.17,1.17,0,0,1-.28-.89,1.18,1.18,0,0,1,.44-.83,1.17,1.17,0,0,1,.89-.28,1.2,1.2,0,0,1,.83.44,1.17,1.17,0,0,1,.28.89A1.2,1.2,0,0,1,58.57,188.27Z"/><path class="cls-3" d="M74,189.68a1.21,1.21,0,0,1-1.72-.16,1.21,1.21,0,0,1,.16-1.72,1.21,1.21,0,0,1,.89-.28,1.16,1.16,0,0,1,.82.44,1.2,1.2,0,0,1-.15,1.72Z"/><path class="cls-3" d="M89.34,191.09a1.22,1.22,0,1,1-.67-2.16,1.22,1.22,0,0,1,.67,2.16Z"/><path class="cls-3" d="M104.73,192.5a1.2,1.2,0,0,1-.9.29,1.24,1.24,0,0,1-1.1-1.34,1.14,1.14,0,0,1,.44-.82,1.17,1.17,0,0,1,.89-.28,1.13,1.13,0,0,1,.82.44,1.17,1.17,0,0,1,.29.89A1.16,1.16,0,0,1,104.73,192.5Z"/><path class="cls-3" d="M120.11,193.92a1.21,1.21,0,0,1-1.72-.16,1.17,1.17,0,0,1-.28-.89,1.18,1.18,0,0,1,.44-.83,1.17,1.17,0,0,1,.89-.28,1.18,1.18,0,0,1,.83.44,1.17,1.17,0,0,1,.28.89A1.2,1.2,0,0,1,120.11,193.92Z"/><path class="cls-3" d="M135.5,195.33a1.21,1.21,0,0,1-1.72-.16,1.22,1.22,0,1,1,2.16-.67A1.2,1.2,0,0,1,135.5,195.33Z"/><path class="cls-3" d="M150.88,196.74a1.22,1.22,0,1,1-.67-2.16,1.22,1.22,0,0,1,.67,2.16Z"/><path class="cls-3" d="M166.27,198.15a1.2,1.2,0,0,1-.9.29,1.22,1.22,0,0,1-.82-.44,1.19,1.19,0,0,1-.28-.9,1.14,1.14,0,0,1,.44-.82,1.17,1.17,0,0,1,.89-.28,1.13,1.13,0,0,1,.82.44,1.17,1.17,0,0,1,.29.89A1.16,1.16,0,0,1,166.27,198.15Z"/><path class="cls-3" d="M181.65,199.57a1.21,1.21,0,0,1-1.72-.16,1.17,1.17,0,0,1-.28-.89,1.18,1.18,0,0,1,.44-.83,1.17,1.17,0,0,1,.89-.28,1.18,1.18,0,0,1,.83.44,1.17,1.17,0,0,1,.28.89A1.2,1.2,0,0,1,181.65,199.57Z"/><path class="cls-3" d="M197,201a1.21,1.21,0,0,1-1.72-.16,1.22,1.22,0,0,1,1.05-2,1.25,1.25,0,0,1,1.11,1.33A1.2,1.2,0,0,1,197,201Z"/><path class="cls-3" d="M212.42,202.39a1.22,1.22,0,0,1-2-1,1.22,1.22,0,0,1,2.16-.67,1.21,1.21,0,0,1-.16,1.72Z"/><path class="cls-3" d="M227.81,203.8a1.15,1.15,0,0,1-.9.28,1.17,1.17,0,0,1-.82-.43,1.2,1.2,0,0,1-.28-.9,1.14,1.14,0,0,1,.44-.82,1.17,1.17,0,0,1,.89-.29,1.22,1.22,0,0,1,.82.44,1.2,1.2,0,0,1,.29.9A1.18,1.18,0,0,1,227.81,203.8Z"/><path class="cls-3" d="M243.19,205.22a1.21,1.21,0,0,1-1.72-.16,1.17,1.17,0,0,1-.28-.89,1.18,1.18,0,0,1,.44-.83,1.22,1.22,0,0,1,2,1A1.2,1.2,0,0,1,243.19,205.22Z"/><path class="cls-3" d="M258.58,206.63a1.21,1.21,0,0,1-1.72-.16,1.22,1.22,0,1,1,2.16-.67A1.2,1.2,0,0,1,258.58,206.63Z"/><path class="cls-3" d="M274,208a1.17,1.17,0,0,1-.89.28,1.2,1.2,0,0,1-.83-.44A1.17,1.17,0,0,1,272,207a1.22,1.22,0,0,1,2.16-.67,1.17,1.17,0,0,1,.28.89A1.18,1.18,0,0,1,274,208Z"/><path class="cls-3" d="M289.35,209.45a1.19,1.19,0,0,1-.9.28,1.14,1.14,0,0,1-.82-.44,1.17,1.17,0,0,1-.28-.89,1.14,1.14,0,0,1,.44-.82,1.17,1.17,0,0,1,.89-.29,1.16,1.16,0,0,1,.82.44,1.2,1.2,0,0,1,.29.9A1.18,1.18,0,0,1,289.35,209.45Z"/><path class="cls-3" d="M304.73,210.86a1.17,1.17,0,0,1-.89.29,1.2,1.2,0,0,1-.83-.44,1.21,1.21,0,0,1,.16-1.72,1.22,1.22,0,1,1,1.56,1.87Z"/><path class="cls-3" d="M56.29,213.16a1.19,1.19,0,0,1-.9.28,1.14,1.14,0,0,1-.82-.44,1.17,1.17,0,0,1-.28-.89,1.14,1.14,0,0,1,.44-.82,1.19,1.19,0,0,1,1.71.15,1.2,1.2,0,0,1,.29.9A1.18,1.18,0,0,1,56.29,213.16Z"/><path class="cls-3" d="M71.67,214.57a1.17,1.17,0,0,1-.89.29,1.2,1.2,0,0,1-.83-.44,1.21,1.21,0,0,1,.16-1.72,1.22,1.22,0,1,1,1.56,1.87Z"/><path class="cls-3" d="M87.06,216a1.21,1.21,0,0,1-1.72-.16,1.17,1.17,0,0,1-.28-.89,1.15,1.15,0,0,1,.44-.83,1.17,1.17,0,0,1,.89-.28,1.25,1.25,0,0,1,1.11,1.33A1.2,1.2,0,0,1,87.06,216Z"/><path class="cls-3" d="M102.44,217.4a1.17,1.17,0,0,1-.89.28,1.2,1.2,0,0,1-.83-.44,1.17,1.17,0,0,1-.28-.89,1.22,1.22,0,0,1,2.16-.67,1.17,1.17,0,0,1,.28.89A1.18,1.18,0,0,1,102.44,217.4Z"/><path class="cls-3" d="M117.83,218.81a1.19,1.19,0,0,1-.9.28,1.14,1.14,0,0,1-.82-.44,1.17,1.17,0,0,1-.28-.89,1.13,1.13,0,0,1,.44-.82,1.17,1.17,0,0,1,.89-.29,1.16,1.16,0,0,1,.82.44,1.2,1.2,0,0,1,.29.9A1.18,1.18,0,0,1,117.83,218.81Z"/><path class="cls-3" d="M133.21,220.22a1.17,1.17,0,0,1-.89.29,1.2,1.2,0,0,1-.83-.44,1.21,1.21,0,0,1,.16-1.72,1.22,1.22,0,1,1,1.56,1.87Z"/><path class="cls-3" d="M148.6,221.64a1.23,1.23,0,0,1-.9.28,1.18,1.18,0,0,1-.82-.44,1.17,1.17,0,0,1-.28-.89,1.15,1.15,0,0,1,.44-.83,1.17,1.17,0,0,1,.89-.28,1.25,1.25,0,0,1,1.11,1.33A1.2,1.2,0,0,1,148.6,221.64Z"/><path class="cls-3" d="M164,223.05a1.17,1.17,0,0,1-.89.28,1.2,1.2,0,0,1-.83-.44A1.17,1.17,0,0,1,162,222a1.2,1.2,0,0,1,.44-.83,1.17,1.17,0,0,1,.89-.28,1.2,1.2,0,0,1,.83.44,1.17,1.17,0,0,1,.28.89A1.18,1.18,0,0,1,164,223.05Z"/><path class="cls-3" d="M179.37,224.46a1.19,1.19,0,0,1-.9.28,1.14,1.14,0,0,1-.82-.44,1.17,1.17,0,0,1-.28-.89,1.13,1.13,0,0,1,.44-.82,1.17,1.17,0,0,1,.89-.29,1.16,1.16,0,0,1,.82.44,1.2,1.2,0,0,1,.29.9A1.18,1.18,0,0,1,179.37,224.46Z"/><path class="cls-3" d="M194.75,225.87a1.17,1.17,0,0,1-.89.29,1.24,1.24,0,0,1-.83-.44,1.21,1.21,0,0,1,.16-1.72,1.22,1.22,0,1,1,1.56,1.87Z"/><path class="cls-3" d="M210.14,227.29a1.23,1.23,0,0,1-.9.28,1.18,1.18,0,0,1-.82-.44,1.17,1.17,0,0,1-.28-.89,1.15,1.15,0,0,1,.44-.83,1.17,1.17,0,0,1,.89-.28,1.25,1.25,0,0,1,1.11,1.33A1.2,1.2,0,0,1,210.14,227.29Z"/><path class="cls-3" d="M225.52,228.7a1.17,1.17,0,0,1-.89.28,1.2,1.2,0,0,1-.83-.44,1.17,1.17,0,0,1-.28-.89,1.2,1.2,0,0,1,.44-.83,1.17,1.17,0,0,1,.89-.28,1.2,1.2,0,0,1,.83.44,1.17,1.17,0,0,1,.28.89A1.2,1.2,0,0,1,225.52,228.7Z"/><path class="cls-3" d="M240.91,230.11a1.19,1.19,0,0,1-.9.28,1.14,1.14,0,0,1-.82-.44,1.21,1.21,0,0,1,.16-1.72,1.21,1.21,0,0,1,.89-.28,1.18,1.18,0,0,1,.82.44,1.2,1.2,0,0,1,.29.9A1.18,1.18,0,0,1,240.91,230.11Z"/><path class="cls-3" d="M256.29,231.52a1.13,1.13,0,0,1-.89.28,1.21,1.21,0,0,1-.67-2.15,1.17,1.17,0,0,1,.89-.29,1.24,1.24,0,0,1,.83.44,1.21,1.21,0,0,1-.16,1.72Z"/><path class="cls-3" d="M271.68,232.94a1.23,1.23,0,0,1-.9.28,1.18,1.18,0,0,1-.82-.44,1.17,1.17,0,0,1-.28-.89,1.15,1.15,0,0,1,.44-.83,1.17,1.17,0,0,1,.89-.28,1.14,1.14,0,0,1,.82.44,1.17,1.17,0,0,1,.29.89A1.2,1.2,0,0,1,271.68,232.94Z"/><path class="cls-3" d="M287.06,234.35a1.17,1.17,0,0,1-.89.28,1.2,1.2,0,0,1-.83-.44,1.17,1.17,0,0,1-.28-.89,1.2,1.2,0,0,1,.44-.83,1.17,1.17,0,0,1,.89-.28,1.2,1.2,0,0,1,.83.44,1.17,1.17,0,0,1,.28.89A1.2,1.2,0,0,1,287.06,234.35Z"/><path class="cls-3" d="M302.45,235.76a1.21,1.21,0,0,1-1.72-.16,1.21,1.21,0,0,1,.16-1.72,1.21,1.21,0,0,1,.89-.28,1.22,1.22,0,0,1,.67,2.16Z"/><path class="cls-3" d="M54,238.06a1.17,1.17,0,0,1-.89.28,1.2,1.2,0,0,1-.83-.44A1.17,1.17,0,0,1,52,237a1.2,1.2,0,0,1,.44-.83,1.17,1.17,0,0,1,.89-.28,1.2,1.2,0,0,1,.83.44,1.17,1.17,0,0,1,.28.89A1.2,1.2,0,0,1,54,238.06Z"/><path class="cls-3" d="M69.39,239.47a1.21,1.21,0,0,1-1.72-.16,1.21,1.21,0,0,1,.16-1.72,1.21,1.21,0,0,1,.89-.28,1.22,1.22,0,0,1,.67,2.16Z"/><path class="cls-3" d="M84.77,240.88a1.22,1.22,0,0,1-2-1,1.25,1.25,0,0,1,1.33-1.11,1.2,1.2,0,0,1,.83.44,1.21,1.21,0,0,1-.16,1.72Z"/><path class="cls-3" d="M100.16,242.29a1.2,1.2,0,0,1-.9.29,1.24,1.24,0,0,1-1.1-1.33,1.15,1.15,0,0,1,.44-.83,1.17,1.17,0,0,1,.89-.28,1.14,1.14,0,0,1,.82.44,1.17,1.17,0,0,1,.29.89A1.16,1.16,0,0,1,100.16,242.29Z"/><path class="cls-3" d="M115.54,243.71a1.17,1.17,0,0,1-.89.28,1.2,1.2,0,0,1-.83-.44,1.17,1.17,0,0,1-.28-.89,1.18,1.18,0,0,1,.44-.83,1.17,1.17,0,0,1,.89-.28,1.2,1.2,0,0,1,.83.44,1.17,1.17,0,0,1,.28.89A1.2,1.2,0,0,1,115.54,243.71Z"/><path class="cls-3" d="M130.93,245.12a1.21,1.21,0,0,1-1.72-.16,1.21,1.21,0,0,1,.16-1.72,1.21,1.21,0,0,1,.89-.28,1.22,1.22,0,0,1,.67,2.16Z"/><path class="cls-3" d="M146.31,246.53a1.22,1.22,0,1,1-.67-2.16,1.2,1.2,0,0,1,.83.44,1.21,1.21,0,0,1-.16,1.72Z"/><path class="cls-3" d="M161.7,247.94a1.2,1.2,0,0,1-.9.29,1.24,1.24,0,0,1-1.1-1.34,1.14,1.14,0,0,1,.44-.82,1.17,1.17,0,0,1,.89-.28,1.14,1.14,0,0,1,.82.44,1.17,1.17,0,0,1,.29.89A1.16,1.16,0,0,1,161.7,247.94Z"/><path class="cls-3" d="M177.08,249.36a1.21,1.21,0,0,1-1.72-.16,1.17,1.17,0,0,1-.28-.89,1.18,1.18,0,0,1,.44-.83,1.17,1.17,0,0,1,.89-.28,1.2,1.2,0,0,1,.83.44,1.17,1.17,0,0,1,.28.89A1.2,1.2,0,0,1,177.08,249.36Z"/><path class="cls-3" d="M192.47,250.77a1.2,1.2,0,0,1-.9.28,1.18,1.18,0,0,1-.82-.44,1.13,1.13,0,0,1-.28-.89,1.21,1.21,0,0,1,2.15-.67,1.17,1.17,0,0,1,.29.89A1.24,1.24,0,0,1,192.47,250.77Z"/><path class="cls-3" d="M207.85,252.18a1.22,1.22,0,1,1-.67-2.16,1.2,1.2,0,0,1,.83.44,1.21,1.21,0,0,1-.16,1.72Z"/><path class="cls-3" d="M223.24,253.59a1.2,1.2,0,0,1-1.72-.15,1.21,1.21,0,0,1,.16-1.72,1.17,1.17,0,0,1,.89-.28,1.14,1.14,0,0,1,.82.44,1.17,1.17,0,0,1,.29.89A1.2,1.2,0,0,1,223.24,253.59Z"/><path class="cls-3" d="M238.62,255a1.21,1.21,0,0,1-1.72-.16,1.17,1.17,0,0,1-.28-.89,1.18,1.18,0,0,1,.44-.83,1.17,1.17,0,0,1,.89-.28,1.2,1.2,0,0,1,.83.44,1.17,1.17,0,0,1,.28.89A1.2,1.2,0,0,1,238.62,255Z"/><path class="cls-3" d="M254,256.42a1.2,1.2,0,0,1-.9.28,1.18,1.18,0,0,1-.82-.44,1.13,1.13,0,0,1-.28-.89,1.21,1.21,0,0,1,2.15-.67,1.17,1.17,0,0,1,.29.89A1.24,1.24,0,0,1,254,256.42Z"/><path class="cls-3" d="M269.39,257.83a1.22,1.22,0,0,1-2-1.05,1.22,1.22,0,0,1,2.16-.67,1.21,1.21,0,0,1-.16,1.72Z"/><path class="cls-3" d="M284.78,259.24a1.22,1.22,0,0,1-1.57-1.87,1.2,1.2,0,0,1,1.72.15,1.2,1.2,0,0,1,.29.9A1.22,1.22,0,0,1,284.78,259.24Z"/><path class="cls-3" d="M300.16,260.66a1.21,1.21,0,0,1-1.72-.16,1.17,1.17,0,0,1-.28-.89,1.18,1.18,0,0,1,.44-.83,1.22,1.22,0,0,1,2,1.05A1.2,1.2,0,0,1,300.16,260.66Z"/><path class="cls-3" d="M51.71,263a1.13,1.13,0,0,1-.89.28,1.17,1.17,0,0,1-.82-.43,1.15,1.15,0,0,1-.28-.9,1.22,1.22,0,0,1,2.15-.67,1.19,1.19,0,0,1-.16,1.72Z"/><path class="cls-3" d="M67.1,264.37a1.21,1.21,0,0,1-1.72-.16,1.17,1.17,0,0,1-.28-.89,1.18,1.18,0,0,1,.44-.83,1.22,1.22,0,0,1,2,1.05A1.2,1.2,0,0,1,67.1,264.37Z"/><path class="cls-3" d="M82.48,265.78a1.17,1.17,0,0,1-.89.28,1.18,1.18,0,0,1-.82-.44,1.13,1.13,0,0,1-.28-.89,1.21,1.21,0,0,1,2.15-.67,1.17,1.17,0,0,1,.29.89A1.21,1.21,0,0,1,82.48,265.78Z"/><path class="cls-3" d="M97.87,267.19a1.17,1.17,0,0,1-.89.28,1.2,1.2,0,0,1-.83-.44,1.17,1.17,0,0,1-.28-.89,1.22,1.22,0,0,1,2.16-.67,1.17,1.17,0,0,1,.28.89A1.18,1.18,0,0,1,97.87,267.19Z"/><path class="cls-3" d="M113.26,268.6a1.2,1.2,0,0,1-.9.28,1.14,1.14,0,0,1-.82-.44,1.13,1.13,0,0,1-.28-.89,1.17,1.17,0,0,1,.43-.82,1.21,1.21,0,0,1,.9-.29,1.18,1.18,0,0,1,.82.44,1.2,1.2,0,0,1,.29.9A1.22,1.22,0,0,1,113.26,268.6Z"/><path class="cls-3" d="M128.64,270a1.17,1.17,0,0,1-.89.29,1.2,1.2,0,0,1-.83-.44,1.21,1.21,0,0,1,.16-1.72,1.22,1.22,0,1,1,1.56,1.87Z"/><path class="cls-3" d="M144,271.43a1.2,1.2,0,0,1-.9.28,1.18,1.18,0,0,1-.82-.44,1.13,1.13,0,0,1-.28-.89,1.21,1.21,0,0,1,2.15-.67,1.17,1.17,0,0,1,.29.89A1.24,1.24,0,0,1,144,271.43Z"/><path class="cls-3" d="M159.41,272.84a1.17,1.17,0,0,1-.89.28,1.2,1.2,0,0,1-.83-.44,1.17,1.17,0,0,1-.28-.89,1.22,1.22,0,0,1,2.16-.67,1.17,1.17,0,0,1,.28.89A1.18,1.18,0,0,1,159.41,272.84Z"/><path class="cls-3" d="M174.8,274.25a1.2,1.2,0,0,1-.9.28,1.14,1.14,0,0,1-.82-.44,1.13,1.13,0,0,1-.28-.89,1.15,1.15,0,0,1,.43-.82,1.21,1.21,0,0,1,.9-.29,1.18,1.18,0,0,1,.82.44,1.2,1.2,0,0,1,.29.9A1.22,1.22,0,0,1,174.8,274.25Z"/><path class="cls-3" d="M190.18,275.66a1.17,1.17,0,0,1-.89.29,1.2,1.2,0,0,1-.83-.44,1.21,1.21,0,0,1,.16-1.72,1.22,1.22,0,1,1,1.56,1.87Z"/><path class="cls-3" d="M205.56,277.08a1.21,1.21,0,0,1-.89.28,1.25,1.25,0,0,1-1.11-1.33,1.22,1.22,0,0,1,.44-.83,1.21,1.21,0,0,1,1.72.16,1.13,1.13,0,0,1,.28.89A1.17,1.17,0,0,1,205.56,277.08Z"/><path class="cls-3" d="M221,278.49a1.17,1.17,0,0,1-.89.28,1.2,1.2,0,0,1-.83-.44,1.17,1.17,0,0,1-.28-.89,1.2,1.2,0,0,1,.44-.83,1.17,1.17,0,0,1,.89-.28,1.2,1.2,0,0,1,.83.44,1.17,1.17,0,0,1,.28.89A1.2,1.2,0,0,1,221,278.49Z"/><path class="cls-3" d="M236.33,279.9a1.17,1.17,0,0,1-.89.28,1.14,1.14,0,0,1-.82-.44,1.17,1.17,0,0,1-.29-.89,1.25,1.25,0,0,1,1.34-1.11,1.18,1.18,0,0,1,.82.44,1.21,1.21,0,0,1-.16,1.72Z"/><path class="cls-3" d="M251.72,281.31a1.17,1.17,0,0,1-.89.29,1.2,1.2,0,0,1-.83-.44,1.21,1.21,0,0,1,.16-1.72,1.22,1.22,0,1,1,1.56,1.87Z"/><path class="cls-3" d="M267.1,282.73a1.21,1.21,0,0,1-.89.28,1.25,1.25,0,0,1-1.11-1.33,1.22,1.22,0,0,1,.44-.83,1.21,1.21,0,0,1,1.72.16,1.13,1.13,0,0,1,.28.89A1.17,1.17,0,0,1,267.1,282.73Z"/><path class="cls-3" d="M282.49,284.14a1.17,1.17,0,0,1-.89.28,1.2,1.2,0,0,1-.83-.44,1.17,1.17,0,0,1-.28-.89,1.2,1.2,0,0,1,.44-.83,1.17,1.17,0,0,1,.89-.28,1.2,1.2,0,0,1,.83.44,1.17,1.17,0,0,1,.28.89A1.2,1.2,0,0,1,282.49,284.14Z"/><path class="cls-3" d="M297.87,285.55a1.17,1.17,0,0,1-.89.28,1.14,1.14,0,0,1-.82-.44,1.17,1.17,0,0,1-.29-.89,1.23,1.23,0,0,1,1.34-1.11,1.18,1.18,0,0,1,.82.44,1.21,1.21,0,0,1-.16,1.72Z"/><path class="cls-4" d="M349.42,79.84c2.64-2.59,4.85-5.57,7.46-8.18a20.92,20.92,0,0,1,3.36-3L293,0c-1.32,2.57-4.93,5.31-6.46,6.87-4.82,4.94-9.66,9.88-14.68,14.63l67,68.37C341.75,86,346,83.25,349.42,79.84Z"/><path class="cls-4" d="M77.56,309.11c2.64-2.6,4.85-5.57,7.46-8.19a21.9,21.9,0,0,1,3.36-3L21.13,229.26c-1.31,2.58-4.92,5.31-6.45,6.87C9.86,241.08,5,246,0,250.76l67,68.38C69.88,315.31,74.1,312.51,77.56,309.11Z"/></g></g></svg>